<svg width="32" height="32" viewBox="0 0 32 32" fill="none" xmlns="http://www.w3.org/2000/svg">
<path d="M28.5028 13.0937C28.3669 11.972 27.806 10.9313 26.9201 10.1568C26.0342 9.38229 24.8806 8.92414 23.6644 8.8637V8.534C23.6656 7.59587 23.4665 6.66691 23.0789 5.80025C22.6914 4.93359 22.1229 4.14638 21.4059 3.48402C20.6906 2.81965 19.8406 2.29282 18.9049 1.93369C17.9692 1.57456 16.9662 1.39022 15.9535 1.39132C13.9091 1.39201 11.9487 2.14487 10.5031 3.4845C9.05744 4.82412 8.24501 6.64092 8.24426 8.53543V8.86881C7.04421 8.94784 5.91172 9.41407 5.04404 10.1864C4.17636 10.9586 3.62834 11.9882 3.49476 13.0962L2.20874 23.9523C2.21509 25.4079 2.84452 26.8017 3.95892 27.8275C5.07332 28.8533 6.58184 29.4273 8.1526 29.4235H23.8477C25.4185 29.4273 26.9266 28.8533 28.041 27.8275C29.1554 26.8017 29.7849 25.4079 29.7912 23.9523L28.5028 13.0937ZM10.5082 8.54709C10.508 7.88449 10.6486 7.22834 10.9221 6.61613C11.1956 6.00391 11.5968 5.44769 12.1023 4.9791C12.6078 4.51051 13.2078 4.1387 13.8683 3.88509C14.5289 3.63149 15.2371 3.5011 15.9521 3.5011C16.6673 3.50047 17.3754 3.63066 18.0362 3.88429C18.6969 4.13792 19.2973 4.50985 19.8026 4.97894C20.309 5.44702 20.7106 6.00318 20.9845 6.61549C21.2584 7.2278 21.3992 7.88424 21.3987 8.54709V8.85316H10.5082V8.54709ZM11.5823 15.9685C11.4027 15.9687 11.2246 15.9361 11.0585 15.8724C10.8925 15.8088 10.7417 15.7154 10.6147 15.5976C10.4877 15.4799 10.387 15.3402 10.3184 15.1864C10.2497 15.0325 10.2145 14.8676 10.2146 14.7011C10.2145 14.5347 10.2497 14.3698 10.3184 14.2159C10.387 14.0621 10.4877 13.9222 10.6147 13.8045C10.7417 13.6867 10.8925 13.5935 11.0585 13.5299C11.2246 13.4662 11.4027 13.4336 11.5823 13.4337C11.7622 13.4334 11.9404 13.4658 12.1068 13.5294C12.2731 13.5929 12.4242 13.6861 12.5517 13.8038C12.6791 13.9215 12.7803 14.0613 12.8494 14.2153C12.9184 14.3692 12.954 14.5344 12.9541 14.7011C12.954 14.8679 12.9184 15.0329 12.8494 15.1868C12.7803 15.3408 12.6791 15.4806 12.5517 15.5983C12.4242 15.716 12.2731 15.8092 12.1068 15.8727C11.9404 15.9363 11.7622 15.9689 11.5823 15.9685ZM20.4208 15.9685C20.2408 15.9689 20.0626 15.9363 19.8963 15.8727C19.7299 15.8092 19.5788 15.716 19.4514 15.5983C19.324 15.4806 19.2228 15.3408 19.1537 15.1868C19.0846 15.0329 19.0491 14.8679 19.0489 14.7011C19.0491 14.5344 19.0846 14.3692 19.1537 14.2153C19.2228 14.0613 19.324 13.9215 19.4514 13.8038C19.5788 13.6861 19.7299 13.5929 19.8963 13.5294C20.0626 13.4658 20.2408 13.4334 20.4208 13.4337C20.6004 13.4336 20.7782 13.4662 20.9442 13.5299C21.1102 13.5935 21.2613 13.6867 21.3884 13.8045C21.5154 13.9222 21.616 14.0621 21.6847 14.2159C21.7534 14.3698 21.7886 14.5347 21.7884 14.7011C21.7886 14.8676 21.7534 15.0325 21.6847 15.1864C21.616 15.3402 21.5154 15.4799 21.3884 15.5976C21.2613 15.7154 21.1102 15.8088 20.9442 15.8724C20.7782 15.9361 20.6004 15.9687 20.4208 15.9685Z" fill="#DAD5D2"/>
<ellipse cx="11.7181" cy="15.434" rx="2.61364" ry="2.5" fill="#8C9196"/>
<ellipse cx="20.3375" cy="15.434" rx="2.61364" ry="2.5" fill="#8C9196"/>
</svg>
