<svg width="24" height="24" viewBox="0 0 24 24" fill="none" xmlns="http://www.w3.org/2000/svg">
<g id="icon-door-exit">
<path id="primary" fill-rule="evenodd" clip-rule="evenodd" d="M11 4H14C14.5523 4 15 4.44771 15 5V8C15 8.55228 14.5523 9 14 9C13.4477 9 13 8.55228 13 8V6H11V18H13V16C13 15.4477 13.4477 15 14 15C14.5523 15 15 15.4477 15 16V19C15 19.5523 14.5523 20 14 20H11V21C11 21.6644 10.3641 22.144 9.72528 21.9615L2.74654 19.9676C2.31699 19.8554 2 19.4647 2 19V5C2 4.53529 2.31699 4.14461 2.74654 4.0324L9.72528 2.03847C10.3641 1.85596 11 2.33562 11 3V4Z" fill="#DAD5D2"/>
<path id="secondary" fill-rule="evenodd" clip-rule="evenodd" d="M18.5858 11L17.2929 9.7071C16.3501 8.76429 17.7643 7.35008 18.7071 8.29289L21.7071 11.2929C22.0976 11.6834 22.0976 12.3166 21.7071 12.7071L18.7071 15.7071C17.7643 16.6499 16.3501 15.2357 17.2929 14.2929L18.5858 13H14C13.4477 13 13 12.5523 13 12C13 11.4477 13.4477 11 14 11H18.5858V11Z" fill="#FF610A"/>
</g>
</svg>
