<svg width="32" height="32" viewBox="0 0 32 32" fill="none" xmlns="http://www.w3.org/2000/svg">
<path d="M21.588 2.66675H10.4133C6.36 2.66675 4 5.04008 4 9.10675V22.8801C4 27.0134 6.36 29.3334 10.4133 29.3334H21.588C25.7067 29.3334 28 27.0134 28 22.8801V9.10675C28 5.04008 25.7067 2.66675 21.588 2.66675" stroke="white" stroke-width="3"/>
<path fill-rule="evenodd" clip-rule="evenodd" d="M10.7731 8.86646V8.87979C10.1984 8.87979 9.73307 9.34646 9.73307 9.91979C9.73307 10.4931 10.1984 10.9598 10.7731 10.9598H14.7584C15.3331 10.9598 15.7997 10.4931 15.7997 9.90512C15.7997 9.33312 15.3331 8.86646 14.7584 8.86646H10.7731ZM21.2264 16.9865H10.7731C10.1984 16.9865 9.73307 16.5199 9.73307 15.9465C9.73307 15.3732 10.1984 14.9052 10.7731 14.9052H21.2264C21.7997 14.9052 22.2664 15.3732 22.2664 15.9465C22.2664 16.5199 21.7997 16.9865 21.2264 16.9865ZM21.2266 23.0797H10.7733C10.3733 23.133 9.98661 22.933 9.77328 22.5997C9.55995 22.253 9.55995 21.813 9.77328 21.4797C9.98661 21.133 10.3733 20.9464 10.7733 20.9864H21.2266C21.7586 21.0397 22.1599 21.493 22.1599 22.0397C22.1599 22.5717 21.7586 23.0264 21.2266 23.0797Z" fill="white"/>
</svg>
