<svg width="32" height="32" viewBox="0 0 32 32" fill="none" xmlns="http://www.w3.org/2000/svg">
<path d="M21.588 2.66667H10.4133C6.36 2.66667 4 5.04 4 9.10667V22.88C4 27.0133 6.36 29.3333 10.4133 29.3333H21.588C25.7067 29.3333 28 27.0133 28 22.88V9.10667C28 5.04 25.7067 2.66667 21.588 2.66667Z" fill="#DAD5D2"/>
<path fill-rule="evenodd" clip-rule="evenodd" d="M10.7728 8.86646V8.87979C10.1982 8.87979 9.73283 9.34646 9.73283 9.91979C9.73283 10.4931 10.1982 10.9598 10.7728 10.9598H14.7582C15.3328 10.9598 15.7995 10.4931 15.7995 9.90512C15.7995 9.33312 15.3328 8.86646 14.7582 8.86646H10.7728ZM21.2262 16.9865H10.7728C10.1982 16.9865 9.73283 16.5199 9.73283 15.9465C9.73283 15.3732 10.1982 14.9052 10.7728 14.9052H21.2262C21.7995 14.9052 22.2662 15.3732 22.2662 15.9465C22.2662 16.5199 21.7995 16.9865 21.2262 16.9865ZM21.2264 23.0797H10.773C10.373 23.133 9.98637 22.933 9.77304 22.5997C9.5597 22.253 9.5597 21.813 9.77304 21.4797C9.98637 21.133 10.373 20.9464 10.773 20.9864H21.2264C21.7584 21.0397 22.1597 21.493 22.1597 22.0397C22.1597 22.5717 21.7584 23.0264 21.2264 23.0797Z" fill="#9796A1"/>
</svg>
