<svg width="109" height="35" viewBox="0 0 109 35" fill="none" xmlns="http://www.w3.org/2000/svg">
<path d="M3.864 34.884C2.872 34.884 2.088 34.612 1.512 34.068C0.968 33.492 0.696 32.676 0.696 31.62V3.924C0.696 2.868 0.968 2.068 1.512 1.524C2.088 0.947998 2.904 0.659998 3.96 0.659998H20.712C21.544 0.659998 22.168 0.867998 22.584 1.284C23 1.7 23.208 2.292 23.208 3.06C23.208 3.86 23 4.484 22.584 4.932C22.168 5.348 21.544 5.556 20.712 5.556H6.84V15.108H19.704C20.504 15.108 21.112 15.316 21.528 15.732C21.976 16.148 22.2 16.74 22.2 17.508C22.2 18.308 21.976 18.932 21.528 19.38C21.112 19.796 20.504 20.004 19.704 20.004H6.84V31.62C6.84 33.796 5.848 34.884 3.864 34.884ZM38.3734 34.98C35.9414 34.98 33.8294 34.484 32.0374 33.492C30.2454 32.5 28.8534 31.092 27.8614 29.268C26.8694 27.412 26.3734 25.236 26.3734 22.74C26.3734 20.852 26.6454 19.172 27.1894 17.7C27.7654 16.196 28.5814 14.916 29.6374 13.86C30.6934 12.772 31.9574 11.956 33.4294 11.412C34.9014 10.836 36.5494 10.548 38.3734 10.548C40.8054 10.548 42.9174 11.044 44.7094 12.036C46.5014 13.028 47.8934 14.436 48.8854 16.26C49.8774 18.084 50.3734 20.244 50.3734 22.74C50.3734 24.628 50.0854 26.324 49.5094 27.828C48.9654 29.332 48.1654 30.628 47.1094 31.716C46.0534 32.772 44.7894 33.588 43.3174 34.164C41.8454 34.708 40.1974 34.98 38.3734 34.98ZM38.3734 30.42C39.5574 30.42 40.5974 30.132 41.4934 29.556C42.3894 28.98 43.0774 28.132 43.5574 27.012C44.0694 25.86 44.3254 24.436 44.3254 22.74C44.3254 20.18 43.7814 18.276 42.6934 17.028C41.6054 15.748 40.1654 15.108 38.3734 15.108C37.1894 15.108 36.1494 15.396 35.2534 15.972C34.3574 16.516 33.6534 17.364 33.1414 18.516C32.6614 19.636 32.4214 21.044 32.4214 22.74C32.4214 25.268 32.9654 27.188 34.0534 28.5C35.1414 29.78 36.5814 30.42 38.3734 30.42ZM67.4696 34.98C65.0376 34.98 62.9256 34.484 61.1336 33.492C59.3416 32.5 57.9496 31.092 56.9576 29.268C55.9656 27.412 55.4696 25.236 55.4696 22.74C55.4696 20.852 55.7416 19.172 56.2856 17.7C56.8616 16.196 57.6776 14.916 58.7336 13.86C59.7896 12.772 61.0536 11.956 62.5256 11.412C63.9976 10.836 65.6456 10.548 67.4696 10.548C69.9016 10.548 72.0136 11.044 73.8056 12.036C75.5976 13.028 76.9896 14.436 77.9816 16.26C78.9736 18.084 79.4696 20.244 79.4696 22.74C79.4696 24.628 79.1816 26.324 78.6056 27.828C78.0616 29.332 77.2616 30.628 76.2056 31.716C75.1496 32.772 73.8856 33.588 72.4136 34.164C70.9416 34.708 69.2936 34.98 67.4696 34.98ZM67.4696 30.42C68.6536 30.42 69.6936 30.132 70.5896 29.556C71.4856 28.98 72.1736 28.132 72.6536 27.012C73.1656 25.86 73.4216 24.436 73.4216 22.74C73.4216 20.18 72.8776 18.276 71.7896 17.028C70.7016 15.748 69.2616 15.108 67.4696 15.108C66.2856 15.108 65.2456 15.396 64.3496 15.972C63.4536 16.516 62.7496 17.364 62.2376 18.516C61.7576 19.636 61.5176 21.044 61.5176 22.74C61.5176 25.268 62.0616 27.188 63.1496 28.5C64.2376 29.78 65.6776 30.42 67.4696 30.42ZM94.8859 34.98C92.8379 34.98 91.0299 34.484 89.4619 33.492C87.9259 32.5 86.7259 31.092 85.8619 29.268C84.9979 27.412 84.5659 25.236 84.5659 22.74C84.5659 20.212 84.9979 18.052 85.8619 16.26C86.7259 14.436 87.9259 13.028 89.4619 12.036C91.0299 11.044 92.8379 10.548 94.8859 10.548C96.8379 10.548 98.5339 11.028 99.9739 11.988C101.446 12.948 102.438 14.212 102.95 15.78H102.422V3.3C102.422 2.308 102.678 1.556 103.19 1.044C103.702 0.531998 104.438 0.275997 105.398 0.275997C106.358 0.275997 107.094 0.531998 107.606 1.044C108.15 1.556 108.422 2.308 108.422 3.3V31.812C108.422 32.804 108.166 33.572 107.654 34.116C107.142 34.628 106.406 34.884 105.446 34.884C104.486 34.884 103.75 34.628 103.238 34.116C102.726 33.572 102.47 32.804 102.47 31.812V28.068L102.998 29.508C102.518 31.172 101.542 32.5 100.07 33.492C98.5979 34.484 96.8699 34.98 94.8859 34.98ZM96.5659 30.42C97.7499 30.42 98.7899 30.132 99.6859 29.556C100.582 28.98 101.27 28.132 101.75 27.012C102.262 25.86 102.518 24.436 102.518 22.74C102.518 20.18 101.974 18.276 100.886 17.028C99.7979 15.748 98.3579 15.108 96.5659 15.108C95.3819 15.108 94.3419 15.396 93.4459 15.972C92.5499 16.516 91.8459 17.364 91.3339 18.516C90.8539 19.636 90.6139 21.044 90.6139 22.74C90.6139 25.268 91.1579 27.188 92.2459 28.5C93.3339 29.78 94.7739 30.42 96.5659 30.42Z" fill="#FF610A"/>
</svg>
