<svg width="21" height="22" viewBox="0 0 21 22" fill="none" xmlns="http://www.w3.org/2000/svg">
<path fill-rule="evenodd" clip-rule="evenodd" d="M13.125 8.375V3.125C13.125 1.67525 11.9497 0.5 10.5 0.5C9.05025 0.5 7.875 1.67525 7.875 3.125V8.375H2.625C1.17525 8.375 0 9.55025 0 11C0 12.4497 1.17525 13.625 2.625 13.625H7.875V18.875C7.875 20.3247 9.05025 21.5 10.5 21.5C11.9497 21.5 13.125 20.3247 13.125 18.875V13.625H18.375C19.8247 13.625 21 12.4497 21 11C21 9.55025 19.8247 8.375 18.375 8.375H13.125Z" fill="white"/>
</svg>
