<svg width="25" height="24" viewBox="0 0 25 24" fill="none" xmlns="http://www.w3.org/2000/svg">
<path fill-rule="evenodd" clip-rule="evenodd" d="M16.3976 12L24.1928 19.4834C25.2691 20.5166 25.2691 22.1918 24.1928 23.2251C23.1165 24.2583 21.3715 24.2583 20.2952 23.2251L12.5 15.7417L4.70481 23.2251C3.62852 24.2583 1.88351 24.2583 0.807218 23.2251C-0.269073 22.1918 -0.269073 20.5166 0.807218 19.4834L8.60241 12L0.807218 4.51662C-0.269073 3.48338 -0.269073 1.80817 0.807218 0.774929C1.88351 -0.25831 3.62852 -0.25831 4.70481 0.774929L12.5 8.25831L20.2952 0.774929C21.3715 -0.25831 23.1165 -0.25831 24.1928 0.774929C25.2691 1.80817 25.2691 3.48338 24.1928 4.51662L16.3976 12Z" fill="#FF610A"/>
</svg>
